<svg width="64" height="25" viewBox="0 0 64 25" fill="none" xmlns="http://www.w3.org/2000/svg">
<path fill-rule="evenodd" clip-rule="evenodd" d="M26.355 21.435L30.4056 13.7245L34.4728 6.04906L31.4982 0L27.4297 7.67546L23.3804 15.3859L18.2487 15.3611L18.9694 11.7918L10.7612 16.6725L16.3246 24.7111L17.0084 21.3985L26.355 21.435Z" fill="url(#paint0_linear_439_25)"/>
<path fill-rule="evenodd" clip-rule="evenodd" d="M10.2912 6.53846L28.2268 6.18909L31.4981 0H0.739868L10.2912 6.53846Z" fill="url(#paint1_linear_439_25)"/>
<path fill-rule="evenodd" clip-rule="evenodd" d="M40.1361 3.27615L36.0855 10.9866L32.0171 18.6621L34.993 24.7111L39.0436 17.0007L43.1107 9.32521L48.2412 9.35L47.5204 12.9179L55.7605 8.01825L50.1653 0L49.4827 3.31407L40.1361 3.27615Z" fill="url(#paint2_linear_439_25)"/>
<path fill-rule="evenodd" clip-rule="evenodd" d="M63.0607 17.9927L38.2642 18.5222L34.9929 24.7113L52.3389 24.3116L63.0607 17.9927Z" fill="url(#paint3_linear_439_25)"/>
<defs>
<linearGradient id="paint0_linear_439_25" x1="33.4319" y1="7.53363e-07" x2="9.89485" y2="16.3307" gradientUnits="userSpaceOnUse">
<stop stop-color="#ABE900"/>
<stop offset="1" stop-color="#92C111"/>
</linearGradient>
<linearGradient id="paint1_linear_439_25" x1="10.2912" y1="2.61538" x2="30.2454" y2="2.02286" gradientUnits="userSpaceOnUse">
<stop stop-color="#66870A"/>
<stop offset="0.466" stop-color="#ABE900"/>
<stop offset="1" stop-color="#92C111"/>
</linearGradient>
<linearGradient id="paint2_linear_439_25" x1="33.1606" y1="18.9615" x2="55.9507" y2="8.96493" gradientUnits="userSpaceOnUse">
<stop offset="0.246" stop-color="#ABE900"/>
<stop offset="1" stop-color="#618109"/>
</linearGradient>
<linearGradient id="paint3_linear_439_25" x1="61.8285" y1="17.9927" x2="55.9552" y2="31.121" gradientUnits="userSpaceOnUse">
<stop stop-color="#ABE900"/>
<stop offset="1" stop-color="#678908"/>
</linearGradient>
</defs>
</svg>
